<?xml version="1.0" encoding="UTF-8"?>
<svg xmlns="http://www.w3.org/2000/svg" xmlns:xlink="http://www.w3.org/1999/xlink" width="552" height="486.71" viewBox="0 0 552 486.71"><defs><style>.cls-1{fill:#dad7d0;opacity:0.44;}.cls-2{fill:#754700;}.cls-3{fill:#588a2b;}.cls-4{fill:#69a335;}.cls-5{fill:#82cf43;}.cls-6{fill:#a1a3a5;}.cls-7{fill:#725a49;}.cls-8{fill:#51382a;}.cls-9{fill:#95ce57;}.cls-10{fill:#66990d;}.cls-11{fill:#51841b;}.cls-12,.cls-17{fill:#1c1c1c;}.cls-12,.cls-41,.cls-56{opacity:0.13;}.cls-13{fill:#8d9296;}.cls-14{fill:#686a6a;}.cls-15{fill:#545c6d;}.cls-16{fill:#666f7f;}.cls-17{opacity:0.14;}.cls-18{fill:#c6c6c6;}.cls-19{fill:url(#Unbenannter_Verlauf_220);}.cls-20{fill:#aaa;}.cls-21{fill:url(#Unbenannter_Verlauf_95);}.cls-22{fill:url(#Unbenannter_Verlauf_95-2);}.cls-23{fill:#5d6567;}.cls-24{fill:url(#Unbenannter_Verlauf_169);}.cls-25{fill:#ededed;}.cls-26{fill:url(#Unbenannter_Verlauf_140);}.cls-27{fill:url(#Unbenannter_Verlauf_197);}.cls-28{fill:url(#Unbenannter_Verlauf_183);}.cls-29{fill:url(#Unbenannter_Verlauf_155);}.cls-30{fill:url(#Unbenannter_Verlauf_155-2);}.cls-31{fill:url(#Unbenannter_Verlauf_162);}.cls-32{fill:url(#Unbenannter_Verlauf_162-2);}.cls-33{fill:url(#Unbenannter_Verlauf_136);}.cls-34{fill:url(#Unbenannter_Verlauf_136-2);}.cls-35{fill:url(#Unbenannter_Verlauf_172);}.cls-36{fill:url(#Unbenannter_Verlauf_3);}.cls-37{fill:url(#Unbenannter_Verlauf_3-2);}.cls-38{fill:#dfe2e7;}.cls-39,.cls-71{fill:#001b41;}.cls-40,.cls-59{fill:none;stroke:#95a0b0;}.cls-40{stroke-linecap:round;stroke-linejoin:round;stroke-width:2.03px;}.cls-41{fill:url(#Unbenannter_Verlauf_223);}.cls-42{fill:url(#Unbenannter_Verlauf_220-2);}.cls-43{fill:url(#Unbenannter_Verlauf_95-3);}.cls-44{fill:url(#Unbenannter_Verlauf_95-4);}.cls-45{fill:url(#Unbenannter_Verlauf_169-2);}.cls-46{fill:url(#Unbenannter_Verlauf_140-2);}.cls-47{fill:url(#Unbenannter_Verlauf_197-2);}.cls-48{fill:url(#Unbenannter_Verlauf_183-2);}.cls-49{fill:url(#Unbenannter_Verlauf_155-3);}.cls-50{fill:url(#Unbenannter_Verlauf_155-4);}.cls-51{fill:url(#Unbenannter_Verlauf_162-3);}.cls-52{fill:url(#Unbenannter_Verlauf_162-4);}.cls-53{fill:url(#Unbenannter_Verlauf_136-3);}.cls-54{fill:url(#Unbenannter_Verlauf_136-4);}.cls-55{fill:url(#Unbenannter_Verlauf_172-2);}.cls-56{fill:url(#Unbenannter_Verlauf_223-2);}.cls-57{fill:url(#Unbenannter_Verlauf_3-3);}.cls-58{fill:url(#Unbenannter_Verlauf_3-4);}.cls-59{stroke-miterlimit:10;stroke-width:1.95px;}.cls-60,.cls-61,.cls-62,.cls-63{opacity:0.6;}.cls-60{fill:url(#Neues_Verlaufsfeld_16);}.cls-61{fill:url(#Neues_Verlaufsfeld_16-2);}.cls-62{fill:url(#Neues_Verlaufsfeld_16-3);}.cls-63{fill:url(#Neues_Verlaufsfeld_16-4);}.cls-64{fill:#3ae0c0;}.cls-65{fill:#f765a6;}.cls-66{fill:#fcd02c;}.cls-67{fill:aqua;}.cls-68{fill:url(#Verlauf_Visual_Icontiefe_2);}.cls-69{fill:url(#Verlauf_Visual_Icontiefe_2-2);}.cls-70{fill:url(#Unbenannter_Verlauf_757);}.cls-71,.cls-72{opacity:0.8;}.cls-72,.cls-73{fill:#b8eef7;}.cls-74{fill:#014a97;}.cls-75{fill:#9fe8f5;}.cls-76{fill:url(#Unbenannter_Verlauf_45);}.cls-77,.cls-78,.cls-80{fill:#75430e;}.cls-78{opacity:0.24;}.cls-79{fill:#7cc43e;}.cls-80{opacity:0.25;}</style><linearGradient id="Unbenannter_Verlauf_220" x1="922.48" y1="438.65" x2="953.7" y2="445.89" gradientTransform="matrix(0.87, 0.5, -1, 0.58, 110.9, -464.65)" gradientUnits="userSpaceOnUse"><stop offset="0" stop-color="#b3b3b3"/><stop offset="0.31" stop-color="silver"/><stop offset="1" stop-color="#dbdbdb"/></linearGradient><linearGradient id="Unbenannter_Verlauf_95" x1="278.23" y1="107.74" x2="289.96" y2="87.41" gradientTransform="translate(205.42)" gradientUnits="userSpaceOnUse"><stop offset="0.23" stop-color="#fff"/><stop offset="0.8" stop-color="#b2b2b2"/></linearGradient><linearGradient id="Unbenannter_Verlauf_95-2" x1="279.57" y1="97.22" x2="281.69" y2="85.24" xlink:href="#Unbenannter_Verlauf_95"/><linearGradient id="Unbenannter_Verlauf_169" x1="-796.92" y1="182.34" x2="-785.32" y2="182.34" gradientTransform="translate(1272.16)" gradientUnits="userSpaceOnUse"><stop offset="0" stop-color="#8d8d8d"/><stop offset="0.6" stop-color="#efefef"/></linearGradient><linearGradient id="Unbenannter_Verlauf_140" x1="-798.15" y1="59.3" x2="-794.04" y2="59.45" gradientTransform="translate(1272.16)" gradientUnits="userSpaceOnUse"><stop offset="0" stop-color="#8d8d8d"/><stop offset="0.85" stop-color="#f0f0f0"/></linearGradient><linearGradient id="Unbenannter_Verlauf_197" x1="-772.39" y1="131.62" x2="-769.04" y2="129.1" gradientTransform="translate(1272.16)" gradientUnits="userSpaceOnUse"><stop offset="0" stop-color="#8d8d8d"/><stop offset="0.85" stop-color="#ededed"/></linearGradient><linearGradient id="Unbenannter_Verlauf_183" x1="-820.9" y1="102.22" x2="-820.73" y2="97.17" gradientTransform="translate(1272.16)" gradientUnits="userSpaceOnUse"><stop offset="0.23" stop-color="#8d8d8d"/><stop offset="0.89" stop-color="#e3e3e3"/></linearGradient><linearGradient id="Unbenannter_Verlauf_155" x1="297.28" y1="135.54" x2="302.47" y2="132.17" gradientTransform="translate(205.42)" gradientUnits="userSpaceOnUse"><stop offset="0.23" stop-color="#af2121"/><stop offset="1" stop-color="#f42121"/></linearGradient><linearGradient id="Unbenannter_Verlauf_155-2" x1="312.44" y1="155.52" x2="316.09" y2="153.41" xlink:href="#Unbenannter_Verlauf_155"/><linearGradient id="Unbenannter_Verlauf_162" x1="242.34" y1="100.33" x2="242.34" y2="93.94" gradientTransform="translate(205.42)" gradientUnits="userSpaceOnUse"><stop offset="0.05" stop-color="#992121"/><stop offset="0.09" stop-color="#a12121"/><stop offset="0.33" stop-color="#c52121"/><stop offset="0.54" stop-color="#df2121"/><stop offset="0.74" stop-color="#ee2121"/><stop offset="0.89" stop-color="#f42121"/></linearGradient><linearGradient id="Unbenannter_Verlauf_162-2" x1="225.14" y1="99.57" x2="225.14" y2="94.36" xlink:href="#Unbenannter_Verlauf_162"/><linearGradient id="Unbenannter_Verlauf_136" x1="269.3" y1="32.36" x2="276.16" y2="32.36" gradientTransform="translate(205.42)" gradientUnits="userSpaceOnUse"><stop offset="0" stop-color="#992121"/><stop offset="0.05" stop-color="#a12121"/><stop offset="0.29" stop-color="#c52121"/><stop offset="0.52" stop-color="#df2121"/><stop offset="0.73" stop-color="#ee2121"/><stop offset="0.89" stop-color="#f42121"/></linearGradient><linearGradient id="Unbenannter_Verlauf_136-2" x1="268.76" y1="55.18" x2="277.16" y2="55.47" xlink:href="#Unbenannter_Verlauf_136"/><linearGradient id="Unbenannter_Verlauf_172" x1="-931.6" y1="115.53" x2="-937" y2="100.8" gradientTransform="matrix(0.92, 0, 0, 0.9, 1332.32, 2.43)" gradientUnits="userSpaceOnUse"><stop offset="0.06" stop-color="#b2b2b2"/><stop offset="0.49" stop-color="#e7e7e7"/></linearGradient><linearGradient id="Unbenannter_Verlauf_3" x1="-690.69" y1="322.44" x2="-650.45" y2="314.08" gradientTransform="translate(1058.88)" gradientUnits="userSpaceOnUse"><stop offset="0" stop-color="#f6f7f8"/><stop offset="1" stop-color="#95a0b0"/></linearGradient><linearGradient id="Unbenannter_Verlauf_3-2" x1="-642.9" y1="335.36" x2="-676.72" y2="317.53" xlink:href="#Unbenannter_Verlauf_3"/><linearGradient id="Unbenannter_Verlauf_223" x1="475.37" y1="233.35" x2="377.92" y2="233.35" gradientUnits="userSpaceOnUse"><stop offset="0" stop-color="#020202"/><stop offset="1" stop-color="#fff"/></linearGradient><linearGradient id="Unbenannter_Verlauf_220-2" x1="922.94" y1="510.25" x2="954.16" y2="517.49" xlink:href="#Unbenannter_Verlauf_220"/><linearGradient id="Unbenannter_Verlauf_95-3" x1="207.02" y1="149.3" x2="218.76" y2="128.97" xlink:href="#Unbenannter_Verlauf_95"/><linearGradient id="Unbenannter_Verlauf_95-4" x1="208.37" y1="138.79" x2="210.48" y2="126.81" xlink:href="#Unbenannter_Verlauf_95"/><linearGradient id="Unbenannter_Verlauf_169-2" x1="-868.12" y1="223.91" x2="-856.52" y2="223.91" xlink:href="#Unbenannter_Verlauf_169"/><linearGradient id="Unbenannter_Verlauf_140-2" x1="-869.35" y1="100.87" x2="-865.25" y2="101.01" xlink:href="#Unbenannter_Verlauf_140"/><linearGradient id="Unbenannter_Verlauf_197-2" x1="-843.59" y1="173.18" x2="-840.25" y2="170.66" xlink:href="#Unbenannter_Verlauf_197"/><linearGradient id="Unbenannter_Verlauf_183-2" x1="-892.11" y1="143.79" x2="-891.93" y2="138.74" xlink:href="#Unbenannter_Verlauf_183"/><linearGradient id="Unbenannter_Verlauf_155-3" x1="226.07" y1="177.11" x2="231.27" y2="173.73" xlink:href="#Unbenannter_Verlauf_155"/><linearGradient id="Unbenannter_Verlauf_155-4" x1="241.24" y1="197.08" x2="244.89" y2="194.97" xlink:href="#Unbenannter_Verlauf_155"/><linearGradient id="Unbenannter_Verlauf_162-3" x1="171.14" y1="141.89" x2="171.14" y2="135.51" xlink:href="#Unbenannter_Verlauf_162"/><linearGradient id="Unbenannter_Verlauf_162-4" x1="153.94" y1="141.13" x2="153.94" y2="135.93" xlink:href="#Unbenannter_Verlauf_162"/><linearGradient id="Unbenannter_Verlauf_136-3" x1="198.09" y1="73.92" x2="204.95" y2="73.92" xlink:href="#Unbenannter_Verlauf_136"/><linearGradient id="Unbenannter_Verlauf_136-4" x1="197.56" y1="96.74" x2="205.96" y2="97.04" xlink:href="#Unbenannter_Verlauf_136"/><linearGradient id="Unbenannter_Verlauf_172-2" x1="-1009.16" y1="161.48" x2="-1014.57" y2="146.75" xlink:href="#Unbenannter_Verlauf_172"/><linearGradient id="Unbenannter_Verlauf_223-2" x1="404.15" y1="274.88" x2="306.67" y2="274.88" xlink:href="#Unbenannter_Verlauf_223"/><linearGradient id="Unbenannter_Verlauf_3-3" x1="-917.95" y1="197.41" x2="-877.71" y2="189.05" gradientTransform="matrix(-1, 0, 0, 1, -661.63, 0)" xlink:href="#Unbenannter_Verlauf_3"/><linearGradient id="Unbenannter_Verlauf_3-4" x1="-870.16" y1="210.33" x2="-903.98" y2="192.5" gradientTransform="matrix(-1, 0, 0, 1, -661.63, 0)" xlink:href="#Unbenannter_Verlauf_3"/><linearGradient id="Neues_Verlaufsfeld_16" x1="122.59" y1="409.23" x2="213.33" y2="409.23" gradientUnits="userSpaceOnUse"><stop offset="0" stop-color="#8c2de0"/><stop offset="0" stop-color="#8a34e1"/><stop offset="1" stop-color="#4a00de"/></linearGradient><linearGradient id="Neues_Verlaufsfeld_16-2" x1="122.59" y1="393.79" x2="213.33" y2="393.79" xlink:href="#Neues_Verlaufsfeld_16"/><linearGradient id="Neues_Verlaufsfeld_16-3" x1="122.59" y1="377.68" x2="213.33" y2="377.68" xlink:href="#Neues_Verlaufsfeld_16"/><linearGradient id="Neues_Verlaufsfeld_16-4" x1="122.59" y1="362.24" x2="213.33" y2="362.24" xlink:href="#Neues_Verlaufsfeld_16"/><linearGradient id="Verlauf_Visual_Icontiefe_2" x1="130.9" y1="265.19" x2="177.5" y2="347.18" gradientUnits="userSpaceOnUse"><stop offset="0" stop-color="#e5f7fa" stop-opacity="0"/><stop offset="1" stop-color="#28cce8" stop-opacity="0.5"/></linearGradient><linearGradient id="Verlauf_Visual_Icontiefe_2-2" x1="141.49" y1="464.52" x2="139.44" y2="315.91" xlink:href="#Verlauf_Visual_Icontiefe_2"/><linearGradient id="Unbenannter_Verlauf_757" x1="237.58" y1="415.87" x2="139.5" y2="361.22" gradientUnits="userSpaceOnUse"><stop offset="0" stop-color="#e5f7fa" stop-opacity="0"/><stop offset="0.34" stop-color="#28cce8" stop-opacity="0.5"/></linearGradient><linearGradient id="Unbenannter_Verlauf_45" x1="291.75" y1="104.29" x2="291.75" y2="30.42" gradientUnits="userSpaceOnUse"><stop offset="0" stop-color="#6daa35"/><stop offset="0.24" stop-color="#79bc3c"/><stop offset="0.51" stop-color="#81c941"/><stop offset="0.76" stop-color="#84ce43"/></linearGradient></defs><title>green energy</title><g id="Ebene_4" data-name="Ebene 4"><ellipse class="cls-1" cx="34.69" cy="280.18" rx="12.33" ry="7.12"/><path class="cls-2" d="M30.82,279.94c0,1.43,7.27,1.43,7.27.22,0-8.35.55-24.38,0-37.63-.16-3.84-7.27-.57-7.27-.21Z"/><path class="cls-3" d="M15.43,253.17c-3.68,2.14-8,3-8.06,3.74,0,.42,2.19,1.55,5.82,1.55,0,0-5.29,3.87-4.67,4.72.82,1.1,6-3.93,7.15-2.57.76.93-1,4.19-.23,4.85.55.5,2.76-3.15,4-3.14.89,0,0,5.77.46,5.27S23,265.14,24.07,265c1.28-.13.66-1.34,1.39,1,1,3.17,1.55,1.68,2.78,4.6.84,2,3.09-4.28,3.09-4.28a11.73,11.73,0,0,1,1-1.45c.56-.73-.27-1.23.76,1,0,0,2.6,4.84,3,5s1.67-6,3.14-5.95c1.24.05,1.67,4.3,2.77,4.27,1.34,0,1.71-6.34,3.45-6.55,1.25-.16,2.26,2.91,3,2.56s0-3.57.69-4c1.22-.73,6.89,2.8,8,2.14.89-.53-2.6-3-3.4-4.85-.92-2.11,6.43,1.66,7.15.15.5-1.06-6-3.53-6.77-4.6-2.16-2.9,3.46,1.07,6.22,2a4.39,4.39,0,0,0,1.64,0c1,.28-6.76-7.32-10.62-8.92-5.54-2.3-1.91-2.92-4-2.89-6.42.11-10.35,1.84-19.07.6-5.56-.79-1.52-4.67-5.56-.79-1.3,1.24-11.8,3.94-12.87,6.22-.44.94-1.18.9,3.23,2.13C16,253.17,16.77,252.4,15.43,253.17Z"/><path class="cls-4" d="M48.84,241.39c2.88,2.05,6.3,2.83,6.31,3.58,0,.41-2,0-2.64,2.13,0,0,2.22,3.07,1.74,3.88-.64,1.06-4.72-3.76-5.6-2.46-.59.89.75,4,.19,4.64s-2.17-3-3.16-3c-.7,0-2.26,3.75-2.62,3.28a19.63,19.63,0,0,1-1.8-3.55c-.49-1.33-.51-1.28-1.08.92-.79,3-.4,4.47-1.37,7.28C38.16,260,36.39,254,36.39,254a11.22,11.22,0,0,0-.76-1.39c-.44-.7.21-1.18-.59,1a44.9,44.9,0,0,1-2.32,4.76c-.39.17-1.31-5.77-2.46-5.71-1,0-1.3,4.12-2.16,4.1-1.05,0-1.34-6.08-2.71-6.29-1-.14-1.77,2.8-2.34,2.46s0-3.42-.54-3.82c-1-.71-5.17,5.41-6.05,4.78-.69-.51,1.82-5.6,2.45-7.38,0,0-4.49,3-5,1.59-.39-1,2.21-3.75,2.84-4.77,1.69-2.78,2.2-3.12,2.19-3.24a16,16,0,0,0-5.41-.55c-.83.14,0-1.27,2.38-3.44,3.89-3.5,4.64-3.42,6.28-3.39A135.19,135.19,0,0,0,44,231.31c4.35-.76,2.33.65,5.5,4.37,1,1.19,4,2.38,3.78,2.87-.37.87.93.86-2.52,2C48.43,241.38,47.79,240.65,48.84,241.39Z"/><path class="cls-5" d="M22.78,227.49c-2.24,2.18-4.9,3-4.9,3.81,0,.44,1.55,0,2.05,2.27,0,0-1.73,3.28-1.35,4.14.49,1.13,3.66-4,4.34-2.62.47.95-.58,4.27-.14,4.95.34.51,1.68-3.21,2.45-3.21.54,0,1.76,4,2,3.5a24.1,24.1,0,0,0,1.4-3.79c.38-1.41.4-1.36.84,1,.61,3.24.32,4.76,1.06,7.75.51,2,1.88-4.37,1.88-4.37a15.2,15.2,0,0,1,.59-1.49c.34-.74-.16-1.25.46,1.05,0,0,1.58,4.94,1.8,5.07s1-6.15,1.92-6.09,1,4.39,1.68,4.37,1-6.48,2.1-6.69c.75-.16,1.37,3,1.82,2.62s0-3.65.42-4.08c.74-.75,4,5.77,4.69,5.09s-1.41-6-1.9-7.86c-.56-2.16,3.92,1.7,4.35.15a7.51,7.51,0,0,0-.7-4.08A4.56,4.56,0,0,0,46,226.06a11.49,11.49,0,0,1,4.22-.16c.64.15-1-2.28-1.9-3.63-2.71-3.94-5.53-7-6.69-12.54-3.81-18.1-5.15-28.23-6.51-21-1.49,7.84-5.6,20.11-8,24.08-.79,1.26-5.05,7.33-7.75,11.7-.49.79-.72.93,2,2.18C23.1,227.48,23.59,226.7,22.78,227.49Z"/><polygon class="cls-6" points="465.88 234.26 534.68 273.95 426.19 334.13 357.45 294.42 465.88 234.26"/><polygon class="cls-7" points="534.68 273.95 534.68 285.78 426.19 345.97 426.26 334.11 534.68 273.95"/><polygon class="cls-8" points="357.56 294.45 426.36 334.14 426.19 345.97 357.45 306.25 357.56 294.45"/><polygon class="cls-9" points="465.88 231.86 534.68 271.55 426.19 331.74 357.45 292.02 465.88 231.86"/><polygon class="cls-10" points="534.68 271.55 534.68 277 426.19 337.19 426.26 331.71 534.68 271.55"/><polygon class="cls-11" points="357.56 292.06 426.36 331.75 426.19 337.19 357.45 297.48 357.56 292.06"/><polygon class="cls-6" points="206.21 84.79 309.86 144.58 146.43 235.25 42.87 175.42 206.21 84.79"/><polygon class="cls-7" points="309.86 144.58 309.86 160.41 146.43 251.08 146.52 235.21 309.86 144.58"/><polygon class="cls-8" points="43.03 175.47 146.68 235.26 146.43 251.08 42.87 191.25 43.03 175.47"/><polygon class="cls-9" points="206.21 84.18 309.86 143.97 146.43 234.64 42.87 174.81 206.21 84.18"/><polygon class="cls-10" points="309.86 143.97 309.86 150.18 146.43 240.85 146.52 234.61 309.86 143.97"/><polygon class="cls-11" points="43.03 174.86 146.68 234.65 146.43 240.85 42.87 181.03 43.03 174.86"/><polygon class="cls-12" points="290.76 144.04 230.6 178.5 189.74 167.33 258.88 126.76 290.76 144.04"/><polygon class="cls-6" points="210.49 161.53 209.18 162.46 233.13 175.85 234.42 174.91 210.49 161.53"/><polygon class="cls-13" points="209.18 162.46 209.18 164.44 233.13 177.84 233.1 175.84 209.18 162.46"/><polygon class="cls-14" points="234.38 174.93 233.07 175.85 233.13 177.84 234.42 176.9 234.38 174.93"/><polygon class="cls-6" points="210.65 141.07 209.18 141.81 210.99 142.82 212.52 142.03 210.65 141.07"/><polygon class="cls-13" points="209.18 141.81 209.18 162.45 210.99 163.45 210.98 142.82 209.18 141.81"/><polygon class="cls-14" points="212.5 142.03 210.96 142.82 210.99 163.45 212.52 162.66 212.5 142.03"/><polygon class="cls-15" points="266.43 107.12 209.18 140.17 233.09 175.5 290.31 142.44 266.43 107.12"/><polygon class="cls-16" points="266.43 107.12 209.18 140.17 233.09 175.5 266.43 107.12"/><polygon class="cls-13" points="209.18 140.17 209.18 142.5 233.09 177.84 233.06 175.49 209.18 140.17"/><polygon class="cls-14" points="290.26 142.46 233.01 175.5 233.09 177.84 290.31 144.78 290.26 142.46"/><polygon class="cls-6" points="266.43 107.12 265.42 107.72 289.33 143.06 290.31 142.44 266.43 107.12"/><polygon class="cls-6" points="210.18 139.57 209.18 140.17 233.09 175.5 234.06 174.89 210.18 139.57"/><polygon class="cls-6" points="219.45 134.41 218.44 135.01 242.22 170.16 243.19 169.55 219.45 134.41"/><polygon class="cls-6" points="228.83 129.04 227.82 129.64 251.5 164.66 252.48 164.05 228.83 129.04"/><polygon class="cls-6" points="238.42 123.48 237.42 124.09 261.1 159.1 262.07 158.49 238.42 123.48"/><polygon class="cls-6" points="247.91 118.07 246.9 118.67 270.58 153.69 271.56 153.07 247.91 118.07"/><polygon class="cls-6" points="257.42 112.58 256.41 113.18 280.09 148.19 281.07 147.58 257.42 112.58"/><polygon class="cls-6" points="289.56 141.29 232.31 174.34 233.09 175.5 290.31 142.44 289.56 141.29"/><polygon class="cls-6" points="266.43 107.1 209.18 140.15 209.96 141.31 267.18 108.25 266.43 107.1"/><polygon class="cls-6" points="271.74 115.75 214.93 148.56 215.71 149.73 272.49 116.91 271.74 115.75"/><polygon class="cls-6" points="277.68 124.36 220.74 157.23 221.52 158.4 278.43 125.51 277.68 124.36"/><polygon class="cls-6" points="282.98 133.06 226.49 165.67 227.27 166.83 283.73 134.22 282.98 133.06"/><polygon class="cls-12" points="213.34 189.34 153.18 223.81 112.31 212.64 181.45 172.07 213.34 189.34"/><polygon class="cls-6" points="133.52 206.09 132.2 207.02 156.15 220.41 157.45 219.47 133.52 206.09"/><polygon class="cls-13" points="132.2 207.02 132.2 209 156.15 222.4 156.13 220.4 132.2 207.02"/><polygon class="cls-14" points="157.41 219.49 156.09 220.41 156.15 222.4 157.45 221.46 157.41 219.49"/><polygon class="cls-6" points="133.67 185.63 132.2 186.37 134.01 187.38 135.54 186.59 133.67 185.63"/><polygon class="cls-13" points="132.2 186.37 132.2 207.01 134.01 208.01 134 187.38 132.2 186.37"/><polygon class="cls-14" points="135.53 186.59 133.99 187.38 134.01 208.01 135.54 207.22 135.53 186.59"/><polygon class="cls-15" points="189.46 151.68 132.2 184.73 156.11 220.06 213.34 187 189.46 151.68"/><polygon class="cls-16" points="189.46 151.68 132.2 184.73 156.11 220.06 189.46 151.68"/><polygon class="cls-13" points="132.2 184.73 132.2 187.06 156.11 222.4 156.08 220.05 132.2 184.73"/><polygon class="cls-14" points="213.29 187.02 156.03 220.06 156.11 222.4 213.34 189.34 213.29 187.02"/><polygon class="cls-6" points="189.46 151.68 188.45 152.28 212.36 187.62 213.34 187 189.46 151.68"/><polygon class="cls-6" points="133.21 184.13 132.2 184.73 156.11 220.06 157.09 219.45 133.21 184.13"/><polygon class="cls-6" points="142.47 178.97 141.47 179.57 165.24 214.72 166.22 214.11 142.47 178.97"/><polygon class="cls-6" points="151.86 173.6 150.85 174.2 174.53 209.22 175.51 208.61 151.86 173.6"/><polygon class="cls-6" points="161.45 168.05 160.44 168.65 184.12 203.66 185.1 203.05 161.45 168.05"/><polygon class="cls-6" points="170.93 162.63 169.93 163.23 193.61 198.25 194.58 197.63 170.93 162.63"/><polygon class="cls-6" points="180.45 157.14 179.44 157.74 203.12 192.75 204.1 192.14 180.45 157.14"/><polygon class="cls-6" points="212.59 185.85 155.34 218.9 156.11 220.06 213.34 187 212.59 185.85"/><polygon class="cls-6" points="189.46 151.66 132.2 184.71 132.98 185.87 190.2 152.82 189.46 151.66"/><polygon class="cls-6" points="194.77 160.32 137.96 193.13 138.73 194.29 195.52 161.47 194.77 160.32"/><polygon class="cls-6" points="200.71 168.92 143.77 201.79 144.55 202.96 201.46 170.07 200.71 168.92"/><polygon class="cls-6" points="206.01 177.63 149.51 210.23 150.29 211.39 206.75 178.78 206.01 177.63"/><polygon class="cls-17" points="240.42 114.45 180.26 148.93 139.4 137.75 208.54 97.18 240.42 114.45"/><polygon class="cls-6" points="160.15 131.95 158.84 132.88 182.79 146.27 184.08 145.33 160.15 131.95"/><polygon class="cls-13" points="158.84 132.88 158.84 134.86 182.79 148.26 182.76 146.26 158.84 132.88"/><polygon class="cls-14" points="184.04 145.34 182.72 146.27 182.79 148.26 184.08 147.32 184.04 145.34"/><polygon class="cls-6" points="160.31 111.48 158.84 112.23 160.65 113.24 162.18 112.45 160.31 111.48"/><polygon class="cls-13" points="158.84 112.23 158.84 132.87 160.65 133.87 160.64 113.24 158.84 112.23"/><polygon class="cls-14" points="162.16 112.45 160.62 113.24 160.65 133.87 162.18 133.08 162.16 112.45"/><polygon class="cls-15" points="216.09 77.54 158.84 110.59 182.75 145.92 239.97 112.86 216.09 77.54"/><polygon class="cls-16" points="216.09 77.54 158.84 110.59 182.75 145.92 216.09 77.54"/><polygon class="cls-13" points="158.84 110.59 158.84 112.92 182.75 148.26 182.72 145.91 158.84 110.59"/><polygon class="cls-14" points="239.92 112.88 182.67 145.92 182.75 148.26 239.97 115.2 239.92 112.88"/><polygon class="cls-6" points="216.09 77.54 215.08 78.14 238.99 113.47 239.97 112.86 216.09 77.54"/><polygon class="cls-6" points="159.84 109.98 158.84 110.59 182.75 145.92 183.72 145.31 159.84 109.98"/><polygon class="cls-6" points="169.11 104.83 168.1 105.43 191.88 140.58 192.85 139.97 169.11 104.83"/><polygon class="cls-6" points="178.49 99.46 177.48 100.06 201.16 135.08 202.14 134.47 178.49 99.46"/><polygon class="cls-6" points="188.08 93.91 187.07 94.51 210.75 129.52 211.73 128.91 188.08 93.91"/><polygon class="cls-6" points="197.57 88.49 196.56 89.09 220.24 124.1 221.22 123.49 197.57 88.49"/><polygon class="cls-6" points="207.08 83 206.07 83.6 229.75 118.61 230.73 118 207.08 83"/><polygon class="cls-6" points="239.22 111.71 181.97 144.76 182.75 145.92 239.97 112.86 239.22 111.71"/><polygon class="cls-6" points="216.09 77.52 158.84 110.57 159.62 111.73 216.84 78.67 216.09 77.52"/><polygon class="cls-6" points="221.4 86.17 164.59 118.98 165.37 120.15 222.15 87.33 221.4 86.17"/><polygon class="cls-6" points="227.34 94.78 170.4 127.65 171.18 128.82 228.09 95.93 227.34 94.78"/><polygon class="cls-6" points="232.64 103.48 176.15 136.09 176.93 137.25 233.39 104.64 232.64 103.48"/><polygon class="cls-12" points="163 159.76 102.83 194.23 61.97 183.06 131.11 142.49 163 159.76"/><polygon class="cls-6" points="83.18 176.51 81.86 177.44 105.81 190.83 107.11 189.89 83.18 176.51"/><polygon class="cls-13" points="81.86 177.44 81.86 179.42 105.81 192.82 105.79 190.82 81.86 177.44"/><polygon class="cls-14" points="107.07 189.91 105.75 190.83 105.81 192.82 107.11 191.88 107.07 189.91"/><polygon class="cls-6" points="83.33 156.05 81.86 156.79 83.67 157.8 85.2 157.01 83.33 156.05"/><polygon class="cls-13" points="81.86 156.79 81.86 177.43 83.67 178.43 83.66 157.8 81.86 156.79"/><polygon class="cls-14" points="85.19 157.01 83.64 157.8 83.67 178.43 85.2 177.64 85.19 157.01"/><polygon class="cls-15" points="139.12 122.1 81.86 155.15 105.77 190.48 163 157.43 139.12 122.1"/><polygon class="cls-16" points="139.12 122.1 81.86 155.15 105.77 190.48 139.12 122.1"/><polygon class="cls-13" points="81.86 155.15 81.86 157.48 105.77 192.82 105.74 190.47 81.86 155.15"/><polygon class="cls-14" points="162.95 157.44 105.69 190.49 105.77 192.82 163 159.76 162.95 157.44"/><polygon class="cls-6" points="139.12 122.1 138.11 122.7 162.02 158.04 163 157.43 139.12 122.1"/><polygon class="cls-6" points="82.87 154.55 81.86 155.15 105.77 190.48 106.75 189.87 82.87 154.55"/><polygon class="cls-6" points="92.13 149.39 91.13 149.99 114.9 185.14 115.88 184.53 92.13 149.39"/><polygon class="cls-6" points="101.52 144.02 100.51 144.62 124.19 179.64 125.17 179.03 101.52 144.02"/><polygon class="cls-6" points="111.11 138.47 110.1 139.07 133.78 174.08 134.76 173.47 111.11 138.47"/><polygon class="cls-6" points="120.59 133.05 119.59 133.65 143.27 168.66 144.24 168.05 120.59 133.05"/><polygon class="cls-6" points="130.11 127.56 129.1 128.16 152.78 163.17 153.76 162.56 130.11 127.56"/><polygon class="cls-6" points="162.25 156.27 104.99 189.32 105.77 190.48 163 157.43 162.25 156.27"/><polygon class="cls-6" points="139.12 122.08 81.86 155.13 82.64 156.29 139.86 123.24 139.12 122.08"/><polygon class="cls-6" points="144.43 130.74 87.61 163.54 88.39 164.71 145.18 131.89 144.43 130.74"/><polygon class="cls-6" points="150.37 139.34 93.43 172.22 94.21 173.38 151.11 140.49 150.37 139.34"/><polygon class="cls-6" points="155.66 148.05 99.17 180.65 99.95 181.81 156.41 149.2 155.66 148.05"/><path class="cls-18" d="M495,270.25c-7.71,4.18-20.21,4.18-27.93,0s-8.52-13.3-.81-17.49,21.7-4.19,29.42,0S502.72,266.06,495,270.25Z"/><ellipse class="cls-19" cx="481.04" cy="259.74" rx="19.75" ry="11.4"/><path class="cls-20" d="M467.49,267.56c-7.47-4.31-7.47-11.33,0-15.65s19.63-4.31,27.1,0,7.47,11.34,0,15.65S475,271.88,467.49,267.56Zm25.62-14.79c-6.65-3.85-17.49-3.85-24.14,0s-6.66,10.1,0,13.94,17.48,3.84,24.14,0S499.77,256.61,493.11,252.77Z"/><path class="cls-21" d="M498.55,98.71s-12.13,8.8-15.59,8.55c-1.42-.11.33-3.25-.65-5.18-1.38-2.72-4.72-5-1.32-5.86,3.63-.9,11-5.6,15.34-6.54a12.36,12.36,0,0,1,2.09-.51c1.47.7,1.49,2,1.46,3.94C499.81,97.87,500.47,97.14,498.55,98.71Z"/><path class="cls-22" d="M498.26,90.68s-11.07,3.93-15.79,5.46-9.3-4.18-9.3-4.18,16-6.84,19-5.81S501.12,89.83,498.26,90.68Z"/><path class="cls-23" d="M473.52,91.8S483,95.14,483,96s.44,10.38,0,11.28c-.26.51-7.55-2-9.25-2.94C472.9,103.87,472.34,91.43,473.52,91.8Z"/><path class="cls-24" d="M478.13,103.25H484l2.89,156.21a12,12,0,0,1-5.8,2,11.27,11.27,0,0,1-5.8-2Q476.68,181.36,478.13,103.25Z"/><path class="cls-25" d="M482.22,99.36a11.31,11.31,0,0,0-3.33-2.12c-.63-.29.37-.42.37-.42.27-.66,1.11-5,1.2-5.39.84-3.39,1.46-12.94,1.66-19.33.32-9.72.62-22.43-.78-34-1.27-10.49-2.6-12.92-3.9-13.66-.77-.45-2.52,9.78-2.68,13.89-.32,8.26-.43,14.93-.78,28.16-.24,8.8,0,16.8.22,21.49.07,1.61,0,4.27.55,5.35.4.84.71.55,1.1.81.93.61,1.52.71-2.72.46-5.38-1-20.1-.68-20.39-.68-7.85.19-19.24.46-21.39.87-14.33,2.69-5.38,4.55,1.08,4.62,2.81,0,38.52,1.41,42.29,2,3.43.51,3.92,1.8,3.92,1.8l32.1,43s12.36,15.4,13.79,15.31-5.17-11.81-5.17-11.81l-17.67-26.94s-10.15-13.51-12.12-15.9S482.22,99.36,482.22,99.36Z"/><path class="cls-26" d="M478.67,26.4c-.62-1.32-.71-1.65-1.23-2-.8-.49-2,3.33-2.6,12-.18,2.51-.5,15.41-.85,28.6-.35,12.8.25,24,.35,25.9,0,.17.05,3.12,1.05,3.47.35.12.43-.94,1-1.09a3.84,3.84,0,0,0,.4-.14S479.61,28.38,478.67,26.4Z"/><path class="cls-27" d="M479.43,98.39l-.79,4.79,32.1,43s12.36,15.4,13.79,15.31c.84-.06-1.12-4.17-2.86-7.53C520.46,151.63,479.43,98.39,479.43,98.39Z"/><path class="cls-28" d="M424,97.42c-.31,1.35,4.38,2,8.42,2,2.91,0,40.41,1.79,41.77,1.88,3.43.51,4.44,1.89,4.44,1.89L476.36,98S424.19,96.61,424,97.42Z"/><polygon class="cls-29" points="502.01 134.49 509.54 144.57 510.14 135.62 501.69 122.73 502.01 134.49"/><path class="cls-30" d="M516.51,153.17c3.43,4.05,7.26,8.36,8,8.31,1.43-.09-5.17-11.81-5.17-11.81l-2.23-3.57Z"/><path class="cls-31" d="M452.36,93.94c-2.62,0-6.2,0-9,.24l-.22,5.75c3.17,0,5.88.32,8.82.4Z"/><path class="cls-32" d="M437.45,94.36a29.93,29.93,0,0,0-6.1.43c-14.33,2.69-5.38,4.55,1.08,4.62,1.6,0,2.89.14,4.5.16Z"/><path class="cls-33" d="M481.58,40.28c-.07-.73-.15-1.46-.24-2.18-1.15-9.45-1.49-13.64-3.9-13.66-1.72,0-2.47,8.57-2.64,12.85,0,1-.07,1.75-.08,2Z"/><path class="cls-34" d="M482.37,61.8c0-3.71,0-6.91-.11-10.83l-7.85-2.13c-.1,3.28-.21,6.66-.31,10Z"/><path class="cls-35" d="M474.1,93.13c-1.9,0-5.86,7.25-5.73,10.75,2.06,1.71,5.88,2.74,10.23,2.42,2.86-.22,3.5-1.66,3.63-3.59C482.75,94.61,475.1,92.77,474.1,93.13Z"/><path class="cls-36" d="M379.65,317c-1.52-.87-1.52-2.3,0-3.18l3.19-1.84a6.11,6.11,0,0,1,5.51,0l11.89,6.86c1.52.88,1.52,2.31,0,3.19l-3.18,1.84a6.16,6.16,0,0,1-5.52,0Z"/><path class="cls-37" d="M398.81,319.62c1.56-.81,2.81,0,2.78,1.72l-.06,3.24a6.3,6.3,0,0,1-2.82,4.78l-3.18,1.84c-1.52.87-2.76.16-2.76-1.6v-3.68a5.76,5.76,0,0,1,2.83-4.64Z"/><path class="cls-38" d="M378.47,315.92c0-1.75,1.24-2.47,2.76-1.59l11.89,6.86a6.09,6.09,0,0,1,2.76,4.77v3.68c0,1.76-1.24,2.47-2.76,1.6l-11.88-6.87a6.1,6.1,0,0,1-2.76-4.78Z"/><ellipse class="cls-39" cx="386.72" cy="323.43" rx="1.87" ry="3.23" transform="translate(-109.9 236.69) rotate(-30)"/><polyline class="cls-40" points="386.45 323.65 237.06 409.85 206.91 387.03"/><path class="cls-41" d="M440.08,217.11l-26.39,2s-2.44-3.71-5.69-2.63c-1.36.45-1.32,2.78-2.2,2.51-2.48-.76-11.69-7-20.59-10.34-7.45-2.81-7-.64-7.28-.68-.6-.08,27.56,15.58,27.56,15.58.37,1-.65,2.79-1.61,4.8-2.65,5.61-5.49,12.21-5.88,13.52-2,6.57.93,3.34,2.36.66,4.07-7.79,8.63-15.69,9.69-17.14a4.91,4.91,0,0,1,1-1q32.13,17.52,64.23,35.06s.13-6,.13-6l-60.14-30L436.75,220s9.12-1.81,9.39-2.43S440.08,217.11,440.08,217.11Z"/><path class="cls-18" d="M423.8,311.81c-7.71,4.19-20.22,4.19-27.93,0s-8.52-13.3-.81-17.49,21.7-4.18,29.41,0S431.51,307.63,423.8,311.81Z"/><ellipse class="cls-42" cx="409.83" cy="301.3" rx="19.75" ry="11.4"/><path class="cls-20" d="M396.28,309.13c-7.47-4.32-7.47-11.34,0-15.65s19.63-4.31,27.11,0,7.47,11.33,0,15.65S403.76,313.44,396.28,309.13Zm25.63-14.8c-6.66-3.84-17.49-3.84-24.15,0s-6.65,10.1,0,13.94,17.49,3.85,24.15,0S428.56,298.18,421.91,294.33Z"/><path class="cls-43" d="M427.34,140.28s-12.13,8.8-15.58,8.54c-1.42-.1.33-3.25-.66-5.18-1.38-2.72-4.72-5-1.32-5.86,3.64-.9,11-5.6,15.34-6.53a11.76,11.76,0,0,1,2.1-.51c1.47.69,1.48,2,1.46,3.94C428.61,139.43,429.27,138.7,427.34,140.28Z"/><path class="cls-44" d="M427.05,132.24s-11.07,3.94-15.78,5.46-9.31-4.17-9.31-4.17,16-6.85,19-5.81S429.92,131.4,427.05,132.24Z"/><path class="cls-23" d="M402.32,133.36s9.44,3.35,9.44,4.19.44,10.38,0,11.27c-.26.52-7.55-2-9.25-2.93C401.69,145.43,401.14,133,402.32,133.36Z"/><path class="cls-45" d="M406.93,144.82h5.81L415.63,301a12,12,0,0,1-5.8,2,11.29,11.29,0,0,1-5.79-2Q405.48,222.93,406.93,144.82Z"/><path class="cls-25" d="M411,140.93a11.13,11.13,0,0,0-3.32-2.12c-.63-.29.37-.42.37-.42.27-.66,1.1-5,1.2-5.4.83-3.39,1.45-12.93,1.66-19.33.31-9.72.62-22.43-.79-34-1.27-10.5-2.6-12.93-3.89-13.67-.78-.44-2.52,9.78-2.68,13.9-.32,8.26-.43,14.92-.78,28.16-.24,8.8,0,16.79.22,21.48.06,1.62,0,4.27.55,5.35.4.84.7.56,1.1.81.92.61,1.51.71-2.72.46-5.38-1-20.1-.68-20.4-.67-7.85.18-19.23.46-21.39.86-14.33,2.69-5.37,4.56,1.08,4.62,2.82,0,38.52,1.42,42.3,2,3.43.51,3.92,1.79,3.92,1.79l32.09,43s12.36,15.4,13.79,15.3-5.16-11.8-5.16-11.8L430.48,164.3s-10.14-13.51-12.11-15.9S411,140.93,411,140.93Z"/><path class="cls-46" d="M407.47,68c-.62-1.32-.72-1.65-1.23-2-.81-.49-2,3.34-2.61,12-.17,2.5-.49,15.41-.85,28.6-.34,12.8.25,24.05.36,25.9,0,.17,0,3.12,1,3.46.36.12.43-.94,1-1.09a3.7,3.7,0,0,0,.4-.13S408.41,70,407.47,68Z"/><path class="cls-47" d="M408.22,140l-.78,4.79,32.09,43s12.36,15.4,13.79,15.3c.85,0-1.11-4.17-2.86-7.52C449.26,193.2,408.22,140,408.22,140Z"/><path class="cls-48" d="M352.8,139c-.31,1.35,4.39,2,8.42,2,2.92,0,40.42,1.8,41.78,1.89,3.43.5,4.44,1.88,4.44,1.88l-2.28-5.13S353,138.17,352.8,139Z"/><polygon class="cls-49" points="430.81 176.05 438.33 186.13 438.94 177.19 430.48 164.3 430.81 176.05"/><path class="cls-50" d="M445.3,194.73c3.44,4.06,7.27,8.36,8,8.31,1.43-.09-5.16-11.8-5.16-11.8l-2.23-3.57Z"/><path class="cls-51" d="M381.16,135.51c-2.62,0-6.2,0-9,.24l-.21,5.74c3.17,0,5.88.32,8.81.4Z"/><path class="cls-52" d="M366.25,135.93a31.35,31.35,0,0,0-6.11.42c-14.33,2.69-5.37,4.56,1.08,4.62,1.61,0,2.9.15,4.5.16Z"/><path class="cls-53" d="M410.38,81.84c-.08-.72-.16-1.45-.25-2.17C409,70.21,408.65,66,406.24,66c-1.73,0-2.48,8.58-2.65,12.85,0,1-.06,1.76-.07,2Z"/><path class="cls-54" d="M411.16,103.37c0-3.71,0-6.91-.11-10.84l-7.84-2.12c-.11,3.27-.21,6.66-.31,10Z"/><path class="cls-55" d="M402.9,134.7c-1.91,0-5.87,7.25-5.74,10.74,2.06,1.72,5.89,2.75,10.24,2.42,2.85-.21,3.5-1.65,3.62-3.58C411.54,136.17,403.89,134.33,402.9,134.7Z"/><path class="cls-56" d="M368.83,258.64l-26.4,2S340,257,336.75,258c-1.36.45-1.32,2.79-2.2,2.52-2.48-.76-11.69-7-20.59-10.35-7.46-2.8-7-.64-7.28-.67-.6-.08,27.56,15.58,27.56,15.58.37,1-.66,2.78-1.61,4.8-2.66,5.6-5.49,12.21-5.89,13.52-2,6.56.94,3.34,2.37.66,4.06-7.8,8.63-15.69,9.68-17.14a4.92,4.92,0,0,1,1-1L404,301s.13-6,.13-6L344,265l21.52-3.48s9.12-1.81,9.4-2.43S368.83,258.64,368.83,258.64Z"/><path class="cls-57" d="M244.86,192c1.52-.87,1.52-2.3,0-3.18L241.68,187a6.1,6.1,0,0,0-5.52,0l-11.89,6.86c-1.51.88-1.51,2.31,0,3.19l3.19,1.83a6.08,6.08,0,0,0,5.51,0Z"/><path class="cls-58" d="M225.7,194.59c-1.56-.81-2.8,0-2.77,1.72l.06,3.24a6.29,6.29,0,0,0,2.81,4.78l3.18,1.84c1.52.87,2.76.16,2.76-1.6v-3.68a5.73,5.73,0,0,0-2.83-4.64Z"/><path class="cls-38" d="M246,190.89c0-1.75-1.24-2.47-2.76-1.59l-11.89,6.86a6.09,6.09,0,0,0-2.76,4.77v3.68c0,1.76,1.24,2.47,2.76,1.6l11.89-6.87a6.14,6.14,0,0,0,2.76-4.78Z"/><ellipse class="cls-39" cx="237.79" cy="198.39" rx="3.23" ry="1.87" transform="translate(-52.92 305.13) rotate(-60)"/><polyline class="cls-40" points="238.07 198.62 352.1 264.05 186.91 362.34"/><path class="cls-59" d="M210.38,382.89s17.15,6.87,1.45,16.84"/><path class="cls-59" d="M208.69,396.4s21.19,8.49,1.79,20.81"/><path class="cls-59" d="M207.24,401s17.14,6.87,1.44,16.84"/><path class="cls-59" d="M213.08,365.48s13.2,25-6.14,34.86"/><path class="cls-59" d="M209.72,367s29.65,2.41-6.14,19.44"/><polygon class="cls-60" points="122.59 409.23 167.96 435.42 213.33 409.23 167.96 383.03 122.59 409.23"/><polygon class="cls-39" points="213.33 409.23 213.33 417.13 167.96 443.33 167.96 435.42 213.33 409.23"/><polygon class="cls-39" points="167.96 435.42 167.96 443.33 122.59 417.13 122.59 409.23 167.96 435.42"/><polygon class="cls-61" points="122.59 393.79 167.96 419.98 213.33 393.79 167.96 367.59 122.59 393.79"/><polygon class="cls-39" points="213.33 393.79 213.33 401.69 167.96 427.89 167.96 419.98 213.33 393.79"/><polygon class="cls-39" points="167.96 419.98 167.96 427.89 122.59 401.69 122.59 393.79 167.96 419.98"/><polygon class="cls-62" points="122.59 377.68 167.96 403.88 213.33 377.68 167.96 351.49 122.59 377.68"/><polygon class="cls-39" points="213.33 377.68 213.33 385.59 167.96 411.78 167.96 403.88 213.33 377.68"/><polygon class="cls-39" points="167.96 403.88 167.96 411.78 122.59 385.59 122.59 377.68 167.96 403.88"/><polygon class="cls-63" points="122.59 362.24 167.96 388.44 213.33 362.24 167.96 336.05 122.59 362.24"/><polygon class="cls-39" points="213.33 362.24 213.33 370.15 167.96 396.34 167.96 388.44 213.33 362.24"/><polygon class="cls-39" points="167.96 388.44 167.96 396.34 122.59 370.15 122.59 362.24 167.96 388.44"/><ellipse class="cls-64" cx="137.84" cy="375.28" rx="1.05" ry="1.83" transform="translate(-169.22 119.26) rotate(-30.01)"/><ellipse class="cls-65" cx="133.94" cy="373" rx="1.05" ry="1.83" transform="matrix(0.87, -0.5, 0.5, 0.87, -168.6, 117)"/><ellipse class="cls-64" cx="129.94" cy="370.66" rx="1.05" ry="1.83" transform="translate(-167.97 114.68) rotate(-30.01)"/><ellipse class="cls-66" cx="125.86" cy="368.39" rx="1.05" ry="1.83" transform="translate(-167.38 112.34) rotate(-30.01)"/><ellipse class="cls-64" cx="137.84" cy="390.82" rx="1.05" ry="1.83" transform="translate(-176.99 121.34) rotate(-30.01)"/><ellipse class="cls-66" cx="133.94" cy="388.53" rx="1.05" ry="1.83" transform="translate(-176.37 119.08) rotate(-30.01)"/><ellipse class="cls-66" cx="129.94" cy="386.2" rx="1.05" ry="1.83" transform="translate(-175.74 116.77) rotate(-30.01)"/><ellipse class="cls-66" cx="125.86" cy="383.92" rx="1.05" ry="1.83" transform="translate(-175.15 114.42) rotate(-30.01)"/><ellipse class="cls-64" cx="137.84" cy="406.35" rx="1.05" ry="1.83" transform="translate(-184.76 123.42) rotate(-30.01)"/><ellipse class="cls-67" cx="133.94" cy="404.07" rx="1.05" ry="1.83" transform="matrix(0.87, -0.5, 0.5, 0.87, -184.14, 121.17)"/><ellipse class="cls-64" cx="129.94" cy="401.73" rx="1.05" ry="1.83" transform="translate(-183.51 118.85) rotate(-30.01)"/><ellipse class="cls-66" cx="125.86" cy="399.46" rx="1.05" ry="1.83" transform="translate(-182.92 116.51) rotate(-30.01)"/><ellipse class="cls-64" cx="137.84" cy="421.89" rx="1.05" ry="1.83" transform="translate(-192.53 125.5) rotate(-30.01)"/><ellipse class="cls-67" cx="133.94" cy="419.6" rx="1.05" ry="1.83" transform="translate(-191.91 123.25) rotate(-30.01)"/><ellipse class="cls-67" cx="129.94" cy="417.27" rx="1.05" ry="1.83" transform="translate(-191.28 120.93) rotate(-30.01)"/><ellipse class="cls-67" cx="125.86" cy="414.99" rx="1.05" ry="1.83" transform="translate(-190.69 118.59) rotate(-30.01)"/><polygon class="cls-68" points="223.36 330.67 168.12 362.56 112.88 330.67 168.12 298.78 223.36 330.67"/><polygon class="cls-39" points="142.85 324.14 125.98 333.88 124.44 332.99 141.3 323.25 142.85 324.14"/><polygon class="cls-39" points="146.24 326.16 129.37 335.9 127.82 335.01 144.69 325.27 146.24 326.16"/><polygon class="cls-39" points="150.07 328.35 133.21 338.09 131.66 337.19 148.53 327.45 150.07 328.35"/><ellipse class="cls-39" cx="216.29" cy="330.67" rx="1.87" ry="1.08"/><ellipse class="cls-39" cx="168.12" cy="303.2" rx="1.87" ry="1.08"/><ellipse class="cls-39" cx="119.06" cy="330.58" rx="1.87" ry="1.08"/><ellipse class="cls-39" cx="167.27" cy="357.07" rx="1.87" ry="1.08"/><polygon class="cls-39" points="112.88 330.67 112.88 332.77 168.12 364.66 168.12 362.56 112.88 330.67"/><polygon class="cls-39" points="223.36 330.67 223.36 332.77 168.12 364.66 168.12 362.56 223.36 330.67"/><polygon class="cls-69" points="112.88 332.77 112.88 420.32 168.12 452.33 168.12 364.66 112.88 332.77"/><polygon class="cls-70" points="223.36 332.77 223.36 420.32 168.12 452.33 168.12 364.66 223.36 332.77"/><polygon class="cls-71" points="209.1 357.74 209.1 396.13 175.97 415.26 175.97 376.9 209.1 357.74"/><polygon class="cls-72" points="216.87 357.74 216.87 396.13 183.73 415.26 183.73 376.9 216.87 357.74"/><polygon class="cls-73" points="199.39 376.17 185.87 383.98 185.87 382.45 199.39 374.64 199.39 376.17"/><polygon class="cls-74" points="206.7 371.96 200.48 375.53 200.48 374.01 206.7 370.43 206.7 371.96"/><polygon class="cls-73" points="191.45 385.78 185.87 389 185.87 387.47 191.45 384.25 191.45 385.78"/><polygon class="cls-73" points="208.36 376.03 199.85 380.93 199.85 379.41 208.36 374.5 208.36 376.03"/><polygon class="cls-74" points="198.09 381.95 192.53 385.15 192.53 383.62 198.09 380.43 198.09 381.95"/><polygon class="cls-73" points="200.27 392.38 185.87 400.68 185.87 399.15 200.27 390.85 200.27 392.38"/><polygon class="cls-74" points="206.91 388.55 201.35 391.75 201.35 390.22 206.91 387.03 206.91 388.55"/><polygon class="cls-75" points="200.95 385.91 186.52 394.19 186.52 392.66 200.95 384.38 200.95 385.91"/><polygon class="cls-1" points="168.12 452.33 67.08 404.83 112.88 379.16 112.88 420.32 168.12 452.33"/><ellipse class="cls-1" cx="293.09" cy="115.47" rx="12.09" ry="6.98"/><path class="cls-76" d="M293.78,30.63c.93.17,6.86,1.31,8.47,5.44a20.16,20.16,0,0,0,1.67,3.78c1.27,2.24,2.4,2.3,2.92,4,.59,1.89-1.78,2.77-1.87,5.82-.05,1.71.69,1.62,1.6,5.44.62,2.61.35,3,1,4.48.94,2.34,1.94,2.4,2.88,4.16,1.63,3.06-.51,4.61,0,10.71.3,3.63,1.14,4.11.64,6.4-.64,2.88-2.17,3-3,5.6-1.55,4.59,2.35,7.07.8,10.23-.54,1.1-.85,5.62-9.57,7-7.34,1.19-7.92.15-8.82,0-5.45-.94-10.73-2.46-11.68-6.4-.87-3.63,3.27-5.54,2.24-9.12-1.11-3.86-6.49-3.52-7.35-7.35-.68-3,2.38-4.3,1.76-8-.58-3.38-3.46-4.12-3-6.23.52-2.64,5.16-2.32,6.07-5.28.72-2.31-1.81-3.46-2.08-7.2-.06-1,0-2,2.88-8.15,2.23-4.8,3.38-7.25,5.28-9.92,3.25-4.57,5.25-5.39,6.72-5.6A7.74,7.74,0,0,1,293.78,30.63Z"/><path class="cls-77" d="M294.35,115.47h-2.93l-.25-11.41a6.82,6.82,0,0,1,4.64.2C294.71,108.19,293.93,112.42,294.35,115.47Z"/><path class="cls-78" d="M294.35,115.47h-2.93L291,97.9s-6.2-4.05-7.12-7.66,0-5.57,0-5.57.79,4.22,3.66,6.17,3.92,1.52,3.92,1.52,0-4.25-.08-11.9c0-.4-3.16-.81-5.46-4.21-4.38-6.5-6.82-17.79-3.92-12.93.93,1.56,2.67,7.64,4.6,10.52,2.12,3.19,4.64,2.54,4.64-.3,0-.87,0-6.3,0-7.22,0-2.06,0-4.12,0-6.12,0-.59.24-2.44.32-4.61.1-2.74.13-9.4.16-10.93,0-.41,1.25,1.42,1.3,5.92,0,.39.15,1.88.16,2.3.1,3.33-.05,11,0,13,0,.52,1.6.3,3.13-1.65s3.56-7.57,3.56-7.07A21.38,21.38,0,0,1,296.71,66c-1.69,2.28-3.42,1.76-3.42,1.81,0,2,.17,11.29.22,13.82,0,1.07.14,4,.15,4.38.07,1.91.07,1.61.16,3.2.2,3.71.46,6.25.75,6.18,3.19-.75,2.6-2.32,4.32-4.36,2.34-2.77,6.34-6.22,6.51-4.17s-4.51,4.34-6.08,7.64S293.47,109.14,294.35,115.47Z"/><ellipse class="cls-1" cx="526.64" cy="246.95" rx="12.06" ry="6.96"/><path class="cls-79" d="M525.11,180.19c.95.11,7,.88,8.59,3.67.74,1.26,5.24,2.57,6.83,3.51,1.42.85,2.54,2.87,3.46,5.45.64,1.76.7,6.09,1.23,10.21,1,7.85-2.38,13-2.89,14.58a34,34,0,0,1-2.08,5.17c-1.58,3.11,1.38,3.39-.18,5.53A21.27,21.27,0,0,1,526,235.58c-7.44.81-12.84-5.07-17.09-11.12-1.45-2.06.39-2.25-.65-4.66-1.12-2.61-2.65-3.09-3.53-5.68-.69-2-1.72-8.19-1.29-9.62.52-1.78,2.79-2.15,3.72-4.15.72-1.56.59-1.75.33-4.28-.07-.66-1-3.7,1.91-7.85,2.25-3.24,4.65-4,6.58-5.83C519.23,179.3,524.12,180.07,525.11,180.19Z"/><path class="cls-77" d="M525.16,247h3.44l.4-12.09a34.38,34.38,0,0,1-6.84.68C524,239.17,525.82,243.85,525.16,247Z"/><path class="cls-80" d="M525.16,247h3.44l.45-13.55s7.25-3.11,8.33-5.9,0-4.28,0-4.28A8.16,8.16,0,0,1,533.1,228c-3.36,1.51-4.6,1.17-4.6,1.17s0-3.27.1-9.17c0-.31,3.7-.62,6.39-3.24,5.13-5,8-13.72,4.59-10-1.09,1.21-3.13,5.89-5.38,8.11-2.48,2.45-5.43,1.95-5.43-.23,0-.67,0-4.86,0-5.56,0-1.6,0-3.18,0-4.72,0-.46,4-4.89,4-5.33-.07-2-4.3,3.45-4.39,1.77-.12-2.11-.16-7.24-.2-8.41,0-.32-.66-5-1.3-3.94-.14.23-.15,5-.22,8.49,0,.27-.17,1.45-.18,1.78-.12,2.56,0,8.49,0,10,0,.4-1.87.23-3.66-1.28s-4.17-5.82-4.17-5.44c0,1.35,1.84,5.16,3.73,6.83a5.31,5.31,0,0,0,4,1.4c0,1.54-.21,8.7-.26,10.65,0,.82-.16,3.08-.18,3.37-.08,1.47-.08,1.24-.18,2.47-.24,2.86-.54,4.82-.88,4.76-3.73-.58-3-1.79-5.06-3.36-2.74-2.13-7.42-4.79-7.62-3.22s5.28,3.35,7.12,5.9S526.2,242.07,525.16,247Z"/></g></svg>